<?xml version="1.0" encoding="UTF-8" standalone="no"?>
<svg xmlns:rdf="http://www.w3.org/1999/02/22-rdf-syntax-ns#" xmlns="http://www.w3.org/2000/svg" height="100%" width="100%" version="1.1" xmlns:cc="http://creativecommons.org/ns#" xmlns:dc="http://purl.org/dc/elements/1.1/" viewBox="0 0 85.837 62.909">
 <g stroke-linejoin="round" transform="translate(-1.4552307e-8,-989.45322)" stroke-dashoffset="0" stroke="#000" stroke-linecap="butt" stroke-miterlimit="4" fill="#FFF">
  <path stroke-width="2.59711337" d="m1.2986,990.77c16.673,0.12822,33.379-0.407,50.026,0.67997,7.1812,1.1682,10.187,3.1235,14.456,7.1119,6.8877,6.6955,9.3789,17.106,8.5697,26.306-0.47506,7.1398-3.9126,14.998-10.062,19.718-3.6092,2.738-7.7422,4.4443-13.111,5.3838-10.042,1.3275-20.203,0.7515-30.304,0.9364-6.5251,0.01-13.051,0.01-19.575,0.1539v-60.29z"/>
  <path d="m262.64,439.45a1.7046,1.7678,0,1,1,-3.4093,0,1.7046,1.7678,0,1,1,3.4093,0z" transform="matrix(2.597113,0,0,2.597113,-597.56602,-120.39928)" stroke-width="1"/>
 </g>
</svg>
